Coordinates
version=1
nRows=20
nColumns=38
inDegrees=no

Units are S.I. units (second, meters, Newtons, ...)
If the header above contains a line with 'inDegrees', this indicates whether rotational values are in degrees (yes) or radians (no).

endheader
time	pelvis_tilt	pelvis_list	pelvis_rotation	pelvis_tx	pelvis_ty	pelvis_tz	hip_flexion_r	hip_adduction_r	hip_rotation_r	knee_angle_r	ankle_angle_r	subtalar_angle_r	mtp_angle_r	hip_flexion_l	hip_adduction_l	hip_rotation_l	knee_angle_l	ankle_angle_l	subtalar_angle_l	mtp_angle_l	lumbar_extension	lumbar_bending	lumbar_rotation	arm_flex_r	arm_add_r	arm_rot_r	elbow_flex_r	pro_sup_r	wrist_flex_r	wrist_dev_r	arm_flex_l	arm_add_l	arm_rot_l	elbow_flex_l	pro_sup_l	wrist_flex_l	wrist_dev_l
0	-2.77156	1.5143	-1.93227	0.611343	-0.602871	0.932853	-0.184387	0.000377281	-0.203171	0.0603305	0.176209	0	0	0.38666	-0.0808538	-0.3924	0.349401	0.153866	0	0	-0.229447	-0.0240618	-0.0994834	-0.266121	-0.202303	0.0563629	0.71428	0.443557	0	0	-0.139449	-0.316186	0.205789	0.612631	1.39722	0	0
0.01	-2.89524	1.49733	-1.81479	0.610762	-0.59224	0.933104	-0.210203	-8.14128e-05	-0.231639	0.0851054	0.205958	0	0	0.35487	-0.064568	-0.33955	0.276405	0.147654	0	0	-0.247473	-0.0226894	-0.0912374	-0.267301	-0.206646	0.057168	0.722009	0.438775	0	0	-0.146266	-0.316509	0.225978	0.614278	1.38211	0	0
0.02	-2.89136	1.49867	-1.81638	0.610076	-0.583318	0.931302	-0.219653	-0.00043763	-0.234194	0.0861005	0.215057	0	0	0.345825	-0.0494832	-0.307305	0.201393	0.130199	0	0	-0.247551	-0.0237897	-0.0928345	-0.263943	-0.205872	0.0565766	0.722564	0.441248	0	0	-0.149204	-0.306594	0.206067	0.599904	1.4015	0	0
0.03	-2.90245	1.49864	-1.80437	0.60949	-0.574194	0.929523	-0.228122	-0.00102986	-0.239973	0.0927051	0.225605	0	0	0.331948	-0.0371059	-0.268692	0.125157	0.110182	0	0	-0.249203	-0.0250833	-0.0922753	-0.261253	-0.205045	0.0556362	0.723197	0.442358	0	0	-0.154071	-0.30687	0.216875	0.59782	1.39106	0	0
0.04	-2.9205	1.49826	-1.78703	0.609021	-0.564745	0.927648	-0.235905	-0.0019769	-0.246297	0.102098	0.238527	0	0	0.315447	-0.0282322	-0.227067	0.0509981	0.0873368	0	0	-0.25066	-0.026611	-0.0896219	-0.260053	-0.204063	0.0532791	0.723837	0.445968	0	0	-0.159551	-0.311326	0.24331	0.600982	1.3472	0	0
0.05	-2.96595	1.49998	-1.74151	0.608636	-0.555188	0.925555	-0.243051	0.000644533	-0.246922	0.109866	0.248472	0	0	0.311035	-0.0270119	-0.2042	0.00513246	0.0785305	0	0	-0.250247	-0.0256755	-0.0881642	-0.25863	-0.203562	0.0537776	0.723981	0.443504	0	0	-0.164099	-0.308015	0.240469	0.594723	1.35734	0	0
0.06	-2.99303	1.49847	-1.71119	0.608362	-0.546384	0.923695	-0.249479	0.00378676	-0.249176	0.124759	0.257663	0	0	0.318642	-0.0292543	-0.191222	0	0.0742487	0	0	-0.254475	-0.0271059	-0.0878549	-0.256856	-0.202108	0.0545145	0.723629	0.44172	0	0	-0.165682	-0.306211	0.239091	0.588415	1.36727	0	0
0.07	-3.02289	1.49819	-1.68146	0.608018	-0.537113	0.921784	-0.256371	0.00428632	-0.252338	0.135306	0.26809	0	0	0.3274	-0.0309634	-0.183095	0	0.0761397	0	0	-0.256479	-0.0283983	-0.0859055	-0.254732	-0.200848	0.0555014	0.72187	0.440778	0	0	-0.168255	-0.303307	0.2354	0.582287	1.37674	0	0
0.08	-3.03267	1.49805	-1.67338	0.607637	-0.527454	0.919894	-0.262138	0.00259107	-0.255349	0.147189	0.27856	0	0	0.333749	-0.0314717	-0.176627	0	0.0794227	0	0	-0.257481	-0.0316543	-0.0828577	-0.253346	-0.199558	0.0570179	0.718956	0.439716	0	0	-0.171501	-0.301585	0.23354	0.578402	1.38446	0	0
0.09	-3.03628	1.4963	-1.67188	0.607234	-0.517247	0.918256	-0.270182	4.04095e-05	-0.256549	0.160013	0.288563	0	0	0.335532	-0.0314349	-0.170274	0	0.0825567	0	0	-0.259407	-0.0357406	-0.0795775	-0.252818	-0.198123	0.0588064	0.715848	0.43832	0	0	-0.175083	-0.299865	0.231153	0.573748	1.39113	0	0
0.1	-3.02635	1.49501	-1.68529	0.606766	-0.506792	0.916638	-0.276603	-0.00439022	-0.259001	0.17513	0.2979	0	0	0.335459	-0.0306686	-0.163711	0	0.0842791	0	0	-0.260288	-0.0410533	-0.0752007	-0.252684	-0.196954	0.0612773	0.712816	0.437231	0	0	-0.178699	-0.298113	0.227882	0.570176	1.39692	0	0
0.11	-3.00135	1.49514	-1.71514	0.606254	-0.496164	0.914946	-0.280022	-0.0108488	-0.26308	0.192401	0.307042	0	0	0.334788	-0.0291713	-0.15696	0	0.0848854	0	0	-0.258971	-0.0475629	-0.0698136	-0.252982	-0.196045	0.0642898	0.709615	0.43655	0	0	-0.182399	-0.296101	0.223783	0.567502	1.40193	0	0
0.12	-2.97522	1.4971	-1.74984	0.605513	-0.484873	0.913202	-0.28045	-0.0226135	-0.275493	0.213556	0.320448	0	0	0.329643	-0.0260044	-0.146515	0	0.0851158	0	0	-0.254399	-0.0537246	-0.0622896	-0.253641	-0.196243	0.06811	0.706047	0.434647	0	0	-0.18743	-0.292706	0.217474	0.56543	1.40456	0	0
0.13	-2.96289	1.49443	-1.76557	0.604753	-0.473971	0.911995	-0.287835	-0.0284438	-0.275216	0.228948	0.323541	0	0	0.33763	-0.0270306	-0.14898	0.0291849	0.0975113	0	0	-0.255662	-0.0595194	-0.057232	-0.255231	-0.194968	0.069251	0.702984	0.435293	0	0	-0.190655	-0.292158	0.218357	0.564955	1.39835	0	0
0.14	-2.98021	1.49503	-1.7509	0.603892	-0.462907	0.910516	-0.292202	-0.0311465	-0.273268	0.244992	0.325154	0	0	0.359612	-0.0338464	-0.17247	0.0961682	0.127525	0	0	-0.253517	-0.0619995	-0.0530835	-0.257	-0.19573	0.0769128	0.700722	0.424142	0	0	-0.194429	-0.288499	0.204923	0.562332	1.42536	0	0
0.15	-3.05881	1.49747	-1.67407	0.602645	-0.451341	0.908569	-0.296188	-0.0290024	-0.271314	0.260523	0.325634	0	0	0.406523	-0.0589663	-0.245935	0.219802	0.184157	0	0	-0.248589	-0.0583853	-0.0477412	-0.262007	-0.197785	0.0802924	0.70057	0.426532	0	0	-0.199097	-0.285985	0.204883	0.562105	1.42315	0	0
0.16	-2.99976	1.49418	-1.73972	0.601758	-0.439768	0.908016	-0.30284	-0.0410327	-0.270476	0.279099	0.324978	0	0	0.382876	-0.0441239	-0.203059	0.199047	0.164134	0	0	-0.248649	-0.0682139	-0.0403193	-0.263415	-0.196383	0.0833629	0.694736	0.425026	0	0	-0.201672	-0.284783	0.201438	0.561334	1.42304	0	0
0.17	-3.06744	1.49692	-1.67674	0.600452	-0.427402	0.906166	-0.305098	-0.0420701	-0.268534	0.298237	0.323189	0	0	0.418217	-0.0697389	-0.274047	0.300002	0.203268	0	0	-0.240782	-0.0655986	-0.0322982	-0.270483	-0.199008	0.086867	0.695163	0.422948	0	0	-0.207705	-0.2812	0.197102	0.56271	1.42308	0	0
0.18	-2.94751	1.49123	-1.80182	0.598953	-0.415395	0.906351	-0.312117	-0.0609466	-0.269513	0.320103	0.318041	0	0	0.380654	-0.042061	-0.225297	0.246693	0.16101	0	0	-0.241519	-0.0805505	-0.027958	-0.269929	-0.196254	0.0897946	0.684462	0.421989	0	0	-0.210704	-0.280474	0.193978	0.562474	1.42258	0	0
0.19	-2.89794	1.48799	-1.8546	0.597104	-0.402886	0.906069	-0.316674	-0.0738923	-0.269484	0.343043	0.309849	0	0	0.369855	-0.0351264	-0.233333	0.248477	0.137334	0	0	-0.238595	-0.0889429	-0.0241979	-0.271517	-0.19499	0.0924065	0.674926	0.421731	0	0	-0.215354	-0.279515	0.194114	0.563668	1.41233	0	0
